<svg aria-label="" role="presentation" aria-hidden="true" preserveAspectRatio="xMidYMid meet" data-type="shape" viewBox="55.5 20 88.999 160.001" xmlns:xlink="http://www.w3.org/1999/xlink" xmlns="http://www.w3.org/2000/svg" data-bbox="55.5 20 88.999 160.001">
  <g data-type="shape">
    <g>
      <path fill="#e8541a" d="m144.401 135.073-.094-3.243c-.484.013-12.002.403-23.648 6.459a47.344 47.344 0 0 0-8.023 5.242c-3.719 3.024-9.343.355-9.343-4.393V20h-6.592v119.089c0 4.748-5.626 7.417-9.344 4.392a46.94 46.94 0 0 0-8.029-5.242c-11.649-6.04-23.17-6.397-23.654-6.408l-.174 6.486c.106.003 10.653.362 20.952 5.765 13.434 7.05 20.246 19.135 20.245 35.919h6.595c-.001-16.732 6.812-28.801 20.25-35.872 10.301-5.42 20.852-5.809 20.957-5.812l-.098-3.244z"></path>
    </g>
  </g>
</svg>
