<svg aria-label="" role="presentation" aria-hidden="true" preserveAspectRatio="xMidYMid meet" data-type="shape" viewBox="2.127 0 155.743 24.999" xmlns:xlink="http://www.w3.org/1999/xlink" xmlns="http://www.w3.org/2000/svg"><g><g>
  <path d="M157.812 10.454c-.22-.7-.982-1.097-1.703-.881q-.359.105-.709.223a22 22 0 0 0-.332-5.75c-.195-1.03-1.045-1.801-2.113-1.92a2.44 2.44 0 0 0-2.362 1.13c-2.729 2.514-7.051 2.47-9.724-.132-1.873-1.823-4.5-2.828-7.208-2.771-2.587.058-4.916 1.058-6.56 2.816-3.936 4.208-12.211 3.807-12.293 3.803l-.078-.002c-2.945 0-5.063-.817-5.87-1.517 3.522 1.12 9.084.807 9.675.77 1.424-.024 2.561-.99 2.77-2.366.214-1.399-.61-2.664-2.002-3.076-1.367-.405-2.949-.619-4.574-.619-2.221 0-4.331.398-5.939 1.119-.836.375-1.51.826-2.008 1.335l-2.096 1.464c-2.788 1.948-6.573 1.647-8.999-.715l-.613-.597c-3.784-3.683-9.94-3.683-13.724 0l-.365.356c-2.72 2.647-7.145 2.647-9.865 0a9.6 9.6 0 0 0-1.261-1.034 7.4 7.4 0 0 0-1.4-.808 9 9 0 0 0-.26-.112A10 10 0 0 0 66.97.732a2 2 0 0 0-.189-.039c-1.286-.346-2.748-.53-4.262-.53-2.22 0-4.33.397-5.938 1.118-.597.259-1.155.6-1.658 1.012l-2.43 1.797c-2.787 1.936-6.563 1.632-8.985-.725l-.614-.597C41.062.983 38.625 0 36.033 0s-5.03.983-6.861 2.767l-.366.356c-2.72 2.647-7.145 2.647-9.865 0-3.784-3.683-9.94-3.683-13.723 0l-2.691 2.62a1.304 1.304 0 0 0 0 1.878 1.394 1.394 0 0 0 1.93 0L7.146 5c2.72-2.648 7.145-2.648 9.865 0 1.892 1.842 4.376 2.763 6.862 2.762s4.97-.92 6.862-2.762l.365-.356a7.02 7.02 0 0 1 4.932-1.989c1.863 0 3.615.707 4.932 1.99l.613.596a9.8 9.8 0 0 0 6.858 2.778 9.87 9.87 0 0 0 5.51-1.68c.47.852 1.366 1.597 2.635 2.166 1.61.721 3.718 1.12 5.938 1.12 2.221 0 4.33-.398 5.939-1.12 1.231-.551 2.111-1.269 2.593-2.09C74.78 8.6 79.7 8.128 82.913 5.001l.366-.356c2.72-2.647 7.145-2.647 9.864 0l.614.597a9.8 9.8 0 0 0 6.857 2.778c1.92 0 3.852-.56 5.533-1.695.468.86 1.365 1.61 2.643 2.182 1.6.718 3.695 1.115 5.902 1.12.782.038 9.722.36 14.426-4.67 1.136-1.215 2.772-1.907 4.607-1.949 1.967-.049 3.866.682 5.213 1.994 1.892 1.842 4.377 2.763 6.862 2.762 2.411 0 4.824-.867 6.693-2.602.245 1.563.375 3.608.013 5.808-5.995 2.907-9.491 7.737-9.696 10.55-.117 1.599.828 2.207 1.238 2.395q.442.201.959.201c1.272 0 2.885-.925 4.89-2.801 2.839-2.655 4.32-5.652 5.021-8.5a21 21 0 0 1 1.989-.702 1.32 1.32 0 0 0 .905-1.659M62.519 6.97c-3.802 0-6.227-1.362-6.227-2.075 0-.139.096-.304.274-.48l.557-.41c1.016-.603 2.912-1.185 5.396-1.185 1.974 0 3.576.367 4.66.82.422.19.825.422 1.2.69.24.206.367.402.367.564.001.713-2.424 2.076-6.227 2.076m52.21-4.15c1.36 0 2.666.174 3.78.504.071.02.114.033.097.144-.016.099-.044.099-.123.099l-.093.003c-1.336.088-4.681.155-7.245-.297.973-.27 2.186-.453 3.584-.453m33.277 16.58c-1.134 1.062-1.903 1.577-2.376 1.827.23-.767.887-2.107 2.355-3.697a18.3 18.3 0 0 1 3.431-2.878c-.728 1.635-1.817 3.259-3.41 4.749"></path>
  <path d="M121.558 21.56c-3.423.933-6.719.766-6.751.764l-.078-.002c-2.756 0-4.788-.716-5.699-1.381 5.025 1.159 8.883.725 9.565.633 1.396-.05 2.503-1.007 2.709-2.364.214-1.398-.609-2.663-2.002-3.076-1.367-.405-2.949-.618-4.574-.618-2.221 0-4.331.397-5.939 1.118-.836.375-1.51.827-2.008 1.335l-2.096 1.464c-2.712 1.895-6.43 1.586-9.045-.757a21 21 0 0 1-1.396-1.348c.894-.848.888-1.68.777-2.155-.22-.931-1.113-1.627-2.226-1.73-1.032-.098-1.945.378-2.325 1.212-.23.506-.257 1.064-.072 1.683-1.795.454-3.733.154-5.124-.062-.527-.081-.982-.152-1.36-.169-1.258-.058-1.715.59-1.876.98-.12.293-.648.96-1.072 1.407-2.721 2.63-7.133 2.625-9.847-.017a9.6 9.6 0 0 0-1.261-1.033 7.5 7.5 0 0 0-1.654-.918 10 10 0 0 0-1.233-.441 1.3 1.3 0 0 0-.192-.038c-1.286-.346-2.746-.53-4.259-.53-2.22 0-4.33.397-5.938 1.118a7 7 0 0 0-1.658 1.012l-2.43 1.797c-2.786 1.936-6.563 1.633-8.985-.725l-.614-.597c-1.833-1.784-4.27-2.767-6.861-2.767s-5.03.983-6.862 2.767l-.366.356c-2.72 2.648-7.145 2.648-9.865 0-3.784-3.683-9.94-3.683-13.723 0l-2.691 2.62a1.303 1.303 0 0 0 0 1.878 1.394 1.394 0 0 0 1.93 0l2.69-2.62c2.72-2.647 7.145-2.647 9.865 0 3.784 3.684 9.94 3.684 13.724 0l.365-.355a7.02 7.02 0 0 1 4.932-1.99c1.863 0 3.615.707 4.932 1.99l.613.597a9.8 9.8 0 0 0 6.858 2.777 9.87 9.87 0 0 0 5.51-1.68c.47.852 1.366 1.598 2.635 2.167 1.61.72 3.718 1.119 5.938 1.119 2.221 0 4.33-.397 5.939-1.12 1.231-.551 2.111-1.268 2.593-2.09 3.729 2.183 8.65 1.712 11.862-1.415l.034-.033c.153-.16.769-.818 1.23-1.521.208.028.452.065.67.099 1.72.266 4.409.682 6.99-.213q.78.901 1.96 1.95c1.992 1.784 4.47 2.697 6.926 2.697a9.65 9.65 0 0 0 5.423-1.654c.468.86 1.365 1.61 2.643 2.183 1.601.717 3.696 1.114 5.903 1.119.107.005.387.016.805.016 1.316 0 3.988-.111 6.798-.877.726-.198 1.149-.93.946-1.637-.204-.71-.957-1.122-1.683-.926m-59.039.763c-3.802 0-6.227-1.363-6.227-2.075 0-.14.096-.305.274-.48l.557-.411c1.016-.602 2.912-1.185 5.396-1.185 1.975 0 3.578.368 4.662.821q.633.286 1.199.69c.24.205.366.401.366.564.001.712-2.424 2.076-6.227 2.076m52.21-4.15c1.36 0 2.666.173 3.78.503.071.021.114.034.097.144-.016.1-.044.1-.123.1h-.108l-.104.015c-.033.004-3.038.442-7.194-.292.985-.278 2.22-.47 3.652-.47"></path>
</g></g></svg>
