<svg aria-label="" role="presentation" aria-hidden="true" preserveAspectRatio="xMidYMid meet" data-type="shape" viewBox="2.016 0 155.969 24.998" xmlns:xlink="http://www.w3.org/1999/xlink" xmlns="http://www.w3.org/2000/svg"><g><g>
  <path d="M17.326 8.61a2.85 2.85 0 0 0-1.25-1.107q-.809-.415-1.958-.415c-1.435 0-2.553.484-3.333 1.452q-1.183 1.42-1.184 3.907.002 2.87 1.317 4.288 1.31 1.417 4.046 1.417c1.73 0 3.12-.715 4.18-2.144h-5.968V10.58h12.169v7.676q-1.545 2.732-4.282 4.703-2.726 1.936-6.908 1.936c-2.472 0-4.635-.519-6.475-1.556q-2.737-1.59-4.216-4.426-1.446-2.834-1.448-6.465.001-3.63 1.45-6.466Q4.942 3.147 7.68 1.591C9.498.53 11.64 0 14.09 0c3.119 0 5.664.772 7.614 2.317q2.968 2.317 3.51 6.294z"></path>
  <path d="M35.527 18.915h7.217v5.809h-14.7V.242h7.484z"></path>
  <path d="M77.5.242v24.482h-7.453V12.517l-3.671 12.207h-6.409l-3.679-12.207v12.207h-7.481V.242h9.174l5.253 14.696L68.36.242z"></path>
  <path d="M104.109 8.645c0 1.544-.352 2.95-1.045 4.219-.698 1.245-1.736 2.236-3.104 2.974q-2.02 1.107-4.922 1.107h-2.965v7.78h-7.489V.242h10.454q4.381 0 6.709 2.282 2.362 2.283 2.362 6.121m-9.916 2.248q2.327 0 2.325-2.248c0-1.5-.772-2.248-2.325-2.248h-2.12v4.495z"></path>
  <path d="M113.901 24.998q-1.962 0-3.141-1.072t-1.178-2.697q-.002-1.66 1.178-2.732c.787-.738 1.831-1.106 3.141-1.106q1.919 0 3.097 1.106 1.184 1.072 1.185 2.732c0 1.083-.398 1.982-1.185 2.697q-1.177 1.072-3.097 1.072"></path>
  <path d="M132.147.242v24.482h-7.483V.242z"></path>
  <path d="M157.985.242v6.086h-6.342v18.396h-7.482V6.328h-6.268V.242z"></path>
</g></g></svg>
