<svg aria-label="" role="presentation" aria-hidden="true" preserveAspectRatio="xMidYMid meet" data-type="shape" viewBox="0 0.093 160 41.814" xmlns:xlink="http://www.w3.org/1999/xlink" xmlns="http://www.w3.org/2000/svg"><g><g>
  <path d="M31.658 14.516q1.806 0 2.845 1.176 1.067 1.15 1.067 3.2v9.494H33.6v-9.547q0-1.204-.547-1.888t-1.45-.684h-1.559q-1.177 0-1.942.793-.766.793-.985 2.243v9.083h-1.97v-9.384q0-1.286-.52-1.997-.492-.74-1.368-.74H21.7q-1.12 0-1.97.985-.847.985-1.067 2.572v8.563h-1.97v-13.65h1.916v1.97q.547-1.04 1.367-1.614t1.724-.575h1.614q1.15 0 1.97.575.848.546 1.286 1.614.63-1.095 1.505-1.641a3.54 3.54 0 0 1 1.915-.547z"></path>
  <path d="M44.651 28.388q-2.16 0-3.119-.93-.93-.93-.93-3.064v-7.907h-2.407v-1.75h2.407v-4.132h1.97v4.131h3.557v1.75h-3.557v7.907q0 1.204.465 1.724.493.521 1.614.52h1.478v1.75z"></path>
  <path d="M54.195 28.385q-1.149 0-1.669-1.395L47.82 14.734h2.08l4.212 11.49h.027l4.213-11.49h2.08l-5.308 13.651z"></path>
  <path d="M66.565 28.605q-2.08 0-3.338-1.176t-1.258-3.092h1.916q0 1.15.739 1.86.74.712 1.942.712h2.38q1.176 0 1.916-.465.74-.491.739-1.26v-.93q0-.518-.41-.901-.41-.41-1.067-.547l-4.733-.821q-1.423-.246-2.298-1.067-.849-.849-.848-1.97v-.903q-.001-1.587 1.204-2.544 1.203-.985 3.173-.985h2.353q1.915 0 3.092 1.094 1.176 1.067 1.176 2.846h-1.915q-.028-1.013-.684-1.615-.63-.63-1.67-.63H66.62q-1.095 0-1.751.52a1.56 1.56 0 0 0-.656 1.314v.794q0 .519.438.93.465.41 1.176.52l4.706.82q1.367.247 2.188 1.068.849.82.848 1.97v1.094q0 1.505-1.286 2.435-1.257.93-3.338.93z"></path>
  <path d="M77.55 28.661q-.658 0-1.068-.41-.41-.411-.41-1.067 0-.657.41-1.067t1.067-.41 1.067.41.41 1.067q0 .656-.41 1.067t-1.067.41"></path>
  <path d="M82.358 14.736h1.916v2.024a5.1 5.1 0 0 1 1.641-1.614q1.013-.63 2.024-.63h1.86q1.887 0 3.037 1.286 1.176 1.285 1.176 3.365v9.219h-1.97v-9.274q0-1.26-.629-2.052-.63-.794-1.669-.793h-1.75q-1.287 0-2.354 1.012-1.039 1.013-1.313 2.599v8.508h-1.97z"></path>
  <path d="M102.282 28.606q-2.298 0-3.693-1.341-1.396-1.368-1.396-3.611V19.74q0-2.352 1.396-3.775 1.396-1.45 3.693-1.45h2.244q2.189 0 3.529 1.396 1.341 1.394 1.341 3.693v2.407H99.164v1.64q0 1.424.848 2.326.876.876 2.27.876h2.079q1.368 0 2.216-.738.848-.766.848-2.024h1.915q0 2.025-1.368 3.283-1.368 1.23-3.611 1.23zm5.144-8.29v-.71q0-1.506-.793-2.407-.793-.93-2.107-.93h-2.244q-1.395 0-2.27.957-.849.959-.848 2.517v.575z"></path>
  <path d="m129.387 14.734-2.955 12.064q-.22.822-.602 1.204-.383.383-1.039.383h-.93l-3.42-10.314-3.529 10.314h-.93q-.629 0-1.039-.383-.411-.382-.602-1.204l-2.982-12.064h2.079l2.544 11.463 3.693-11.08h.711q.794 0 1.067.875l3.338 10.123 2.517-11.38z"></path>
  <path d="M135.944 28.605q-2.08 0-3.338-1.176t-1.258-3.092h1.915q0 1.15.739 1.86.738.712 1.942.712h2.38q1.176 0 1.916-.465.738-.491.739-1.26v-.93q0-.518-.41-.901-.411-.41-1.067-.547l-4.733-.821q-1.423-.246-2.299-1.067-.848-.849-.848-1.97v-.903q0-1.587 1.204-2.544 1.204-.985 3.174-.985h2.353q1.915 0 3.092 1.094 1.176 1.067 1.176 2.846h-1.916q-.027-1.013-.684-1.615-.629-.63-1.669-.63h-2.353q-1.095 0-1.751.52a1.56 1.56 0 0 0-.656 1.314v.794q0 .519.438.93.465.41 1.176.52l4.705.82q1.368.247 2.189 1.068.848.82.848 1.97v1.094q0 1.505-1.286 2.435-1.258.93-3.338.93z"></path>
  <path d="M160 15.255h-2.963V5.919l-2.699-2.862H5.661L2.963 5.919v9.336H0V4.743L4.382.093h151.235L160 4.744z"></path>
  <path d="M155.617 41.907H4.382L0 37.258V26.746h2.963v9.336l2.698 2.862h148.677l2.699-2.862v-9.336H160v10.512z"></path>
</g></g></svg>
