<svg aria-label="" role="presentation" aria-hidden="true" preserveAspectRatio="xMidYMid meet" data-type="shape" viewBox="0.505 0 158.99 28.002" xmlns:xlink="http://www.w3.org/1999/xlink" xmlns="http://www.w3.org/2000/svg"><g><g>
  <path d="M5.504 0H.505v27.998h11.616v-3.526H5.504z"></path>
  <path d="m19.484 0-5.47 27.998h4.693l1.114-6.463h4.762l1.08 6.463h4.628L24.82 0zm.844 18.286 1.858-11.752 1.857 11.752z"></path>
  <path d="M45.23.937Q43.355.004 40.012.004h-6.45v27.998h6.653q3.207 0 5.049-.985 1.84-.985 2.633-3.007.794-2.022.794-5.063V8.713q0-2.973-.794-4.908A5.4 5.4 0 0 0 45.23.937m-1.604 18.147q0 1.729-.17 2.92-.17 1.193-.911 1.815-.743.622-2.465.622h-1.52V3.633h1.452q1.654 0 2.398.484.743.484.979 1.52.236 1.038.236 2.731z"></path>
  <path d="M58.047 15.209h5.1v-3.56h-5.1V3.595h6.483V0H53.049v27.998h11.549v-3.526h-6.551z"></path>
  <path d="M81.97 12.738q.727-.95 1.03-2.299.305-1.349.305-3.042 0-2.8-.996-4.424-.998-1.625-2.904-2.3T74.728 0h-6.55v27.998h4.997V15.176h2.296L78.781 28h4.998l-3.816-13.792q1.28-.518 2.008-1.47m-3.696-2.592q-.372.951-1.233 1.383t-2.313.432h-1.553V3.493H75q2.128 0 2.887 1.054.76 1.055.76 3.162-.002 1.486-.372 2.437"></path>
  <path d="m91.88 0-5.47 27.998h4.694l1.114-6.463h4.761l1.081 6.463h4.627L97.217 0zm.845 18.286 1.857-11.752 1.856 11.752z"></path>
  <path d="M103.191 3.768h4.357v24.23h4.998V3.768h4.288V0h-13.643z"></path>
  <path d="M125.007 15.209h5.099v-3.56h-5.099V5.035h25.392V0H120.01v27.998h30.389v-5.035h-25.392z"></path>
  <path d="M159.495 11.484v5.035h-24.423v-5.035z"></path>
</g></g></svg>
