<svg aria-label="" role="presentation" aria-hidden="true" preserveAspectRatio="xMidYMid meet" data-type="shape" viewBox="1.319 -0.001 157.361 38.002" xmlns:xlink="http://www.w3.org/1999/xlink" xmlns="http://www.w3.org/2000/svg"><g><g>
  <path d="M31.037 30.276c-2.482 0-4.563-.878-6.183-2.61a8.83 8.83 0 0 1-2.427-6.236 8.87 8.87 0 0 1 2.447-6.251 8.1 8.1 0 0 1 2.764-1.968 8 8 0 0 1 3.317-.655c2.4 0 4.438.837 6.058 2.487 1.62 1.652 2.46 3.9 2.523 6.715l.014.727H26.256a4.97 4.97 0 0 0 1.406 2.863c.416.43.916.772 1.469 1.002.55.23 1.143.343 1.74.332 2.181 0 3.805-1.066 4.968-3.268l.328-.617 3.208 1.668-.341.64c-.928 1.736-2.05 3.045-3.34 3.887-1.288.843-2.87 1.284-4.657 1.284m4.28-11.279a4.05 4.05 0 0 0-1.372-1.794 4.83 4.83 0 0 0-2.988-.964c-1.982 0-3.356.905-4.184 2.758z"></path>
  <path d="M52.352 29.766v-8.054c0-2.023-.117-2.901-.215-3.28a3.9 3.9 0 0 0-.585-1.314 2.1 2.1 0 0 0-.878-.71 3.7 3.7 0 0 0-1.455-.253 3.56 3.56 0 0 0-1.675.43 4.4 4.4 0 0 0-1.444 1.218 4.6 4.6 0 0 0-.839 1.665c-.11.424-.242 1.44-.242 3.887v6.415h-3.732V12.952h3.725v1.32a7.13 7.13 0 0 1 4.661-1.717 6.14 6.14 0 0 1 3.368.974 6.04 6.04 0 0 1 2.276 2.682c.492 1.108.73 2.724.73 4.937v8.618z"></path>
  <path d="M66.244 30.276c-2.481 0-4.562-.878-6.182-2.61a8.82 8.82 0 0 1-2.428-6.235 8.86 8.86 0 0 1 2.442-6.252 8.1 8.1 0 0 1 2.765-1.969 8 8 0 0 1 3.32-.654c2.399 0 4.438.837 6.059 2.487 1.62 1.652 2.46 3.902 2.522 6.715l.016.727H61.465a4.97 4.97 0 0 0 1.406 2.863 4.4 4.4 0 0 0 1.468 1.002c.55.23 1.144.343 1.74.332 2.18 0 3.807-1.066 4.97-3.268l.326-.617 3.21 1.67-.341.639c-.929 1.736-2.052 3.044-3.34 3.886-1.29.843-2.872 1.284-4.66 1.284m4.281-11.279a4.05 4.05 0 0 0-1.372-1.794 4.83 4.83 0 0 0-2.989-.964c-1.979 0-3.356.905-4.182 2.758z"></path>
  <path d="M75.484 29.77V12.954h3.754v.48q.151-.128.302-.236c.59-.424 1.3-.648 2.027-.64.718 0 1.52.239 2.385.71l.658.356-1.933 3.189-.583-.313a1.3 1.3 0 0 0-.593-.178c-.353 0-.693.195-1.021.6a5.1 5.1 0 0 0-.91 1.984c-.217.87-.328 2.508-.328 4.868v5.992z"></path>
  <path d="M93.008 35.218c-4.267 0-7.156-1.863-8.59-5.534l-.377-.972h3.905l.2.355c.956 1.731 2.519 2.573 4.78 2.573a6.2 6.2 0 0 0 2.79-.597c.777-.385 1.304-.87 1.61-1.488a5 5 0 0 0 .409-1.634 8 8 0 0 1-1.583.888 8.8 8.8 0 0 1-3.456.71c-2.383 0-4.411-.84-6.021-2.5s-2.416-3.643-2.395-5.9c-.02-2.344.832-4.383 2.532-6.052a8.4 8.4 0 0 1 2.782-1.87 8.4 8.4 0 0 1 3.282-.634 7.76 7.76 0 0 1 4.922 1.736V12.95h3.727v12.488c0 2.133-.176 3.691-.56 4.757a7.05 7.05 0 0 1-1.735 2.761 7.6 7.6 0 0 1-2.77 1.697c-1.11.385-2.277.576-3.452.564m.056-18.98a4.8 4.8 0 0 0-1.967.36 4.8 4.8 0 0 0-1.654 1.135c-.982 1.012-1.46 2.145-1.46 3.471a4.44 4.44 0 0 0 1.38 3.31c.933.92 2.11 1.365 3.59 1.365s2.65-.437 3.575-1.34c.925-.902 1.364-2.015 1.364-3.427 0-1.414-.456-2.58-1.394-3.504a4.68 4.68 0 0 0-3.434-1.37"></path>
  <path d="M111.589 30.277c-2.349 0-4.387-.89-6.052-2.633a8.7 8.7 0 0 1-1.872-2.874 8.8 8.8 0 0 1-.629-3.382 8.63 8.63 0 0 1 2.526-6.232 8.4 8.4 0 0 1 2.808-1.95 8.3 8.3 0 0 1 3.344-.65 7.48 7.48 0 0 1 4.899 1.744v-1.348h3.67v16.814h-3.67v-1.322a7.8 7.8 0 0 1-5.024 1.833m.153-14.04a4.6 4.6 0 0 0-1.928.385 4.6 4.6 0 0 0-1.598 1.158 5.1 5.1 0 0 0-1.092 1.692 5.2 5.2 0 0 0-.363 1.986 5.1 5.1 0 0 0 .37 1.99c.254.63.631 1.202 1.11 1.683.443.494.986.888 1.593 1.156.605.266 1.261.4 1.922.39a4.7 4.7 0 0 0 1.903-.373 4.7 4.7 0 0 0 1.595-1.112c.99-1 1.472-2.218 1.472-3.72s-.475-2.729-1.449-3.731c-.451-.486-1-.872-1.61-1.131a4.7 4.7 0 0 0-1.926-.37z"></path>
  <path d="M127.792 30.277c-1.087 0-1.922-.295-2.485-.879q-.846-.875-.844-2.6V16.41h-2.627v-3.455h2.627v-5.79h3.726v5.79h3.017v3.455h-3.017v10.206c.073 0 .175.01.3.01h2.045v3.318l-.587.1a14 14 0 0 1-2.155.234"></path>
  <path d="M140.192 30.277c-2.422 0-4.492-.875-6.153-2.602a8.7 8.7 0 0 1-1.869-2.868 8.8 8.8 0 0 1-.622-3.375 8.8 8.8 0 0 1 .628-3.384 8.7 8.7 0 0 1 1.878-2.874 8.5 8.5 0 0 1 2.797-1.937 8.45 8.45 0 0 1 9.442 1.937 8.7 8.7 0 0 1 1.88 2.873 8.8 8.8 0 0 1 .633 3.385 8.8 8.8 0 0 1-.611 3.37 8.7 8.7 0 0 1-1.85 2.87c-1.658 1.73-3.723 2.605-6.153 2.605m0-14.009c-1.328 0-2.443.505-3.414 1.543a5.2 5.2 0 0 0-1.456 3.706c-.017.67.099 1.336.34 1.96a5 5 0 0 0 1.066 1.675c.932.99 2.07 1.474 3.484 1.474a4.57 4.57 0 0 0 3.449-1.492 5 5 0 0 0 1.078-1.671 5.1 5.1 0 0 0 .344-1.965 5.2 5.2 0 0 0-.366-1.996 5.1 5.1 0 0 0-1.102-1.695c-.979-1.034-2.101-1.539-3.423-1.539"></path>
  <path d="M149.555 29.77V12.954h3.753v.48a5 5 0 0 1 .303-.236c.59-.423 1.3-.648 2.026-.64.719 0 1.52.239 2.386.71l.657.355-1.934 3.188-.581-.312a1.3 1.3 0 0 0-.594-.178c-.352 0-.693.195-1.021.6a5.05 5.05 0 0 0-.909 1.984c-.218.87-.328 2.508-.328 4.868v5.992z"></path>
  <path d="M14.77.892 12.025 15.07a.34.34 0 0 0 .33.404h7.543a.338.338 0 0 1 .298.496L8.927 37.599a.74.74 0 0 1-.904.36.74.74 0 0 1-.397-.335.76.76 0 0 1-.083-.519l2.838-15.5a.34.34 0 0 0-.332-.405H1.655a.33.33 0 0 1-.29-.167.34.34 0 0 1-.003-.337L13.392.382a.74.74 0 0 1 .902-.338.75.75 0 0 1 .391.336.77.77 0 0 1 .084.512"></path>
</g></g></svg>
