<svg aria-label="" role="presentation" aria-hidden="true" preserveAspectRatio="xMidYMid meet" data-type="shape" viewBox="0 0.043 120 43.914" xmlns:xlink="http://www.w3.org/1999/xlink" xmlns="http://www.w3.org/2000/svg"><g><g>
  <path d="M14.065 43.957q-2.952 0-5.705-.639-2.754-.59-4.966-1.721l2.36-5.213q2.115 1.033 4.13 1.525c1.32.325 2.674.49 4.033.492q3 0 4.524-1.279 1.573-1.278 1.573-3.835v-2.016q-3.147 2.311-7.032 2.312-3.639 0-6.589-1.722-2.902-1.77-4.672-4.77-1.72-3-1.721-6.638 0-3.638 1.721-6.59a13.04 13.04 0 0 1 4.77-4.671q3-1.77 6.688-1.77 1.868 0 3.639.54a13 13 0 0 1 3.295 1.525V7.816h6.638v25.57q0 5.064-3.295 7.819-3.245 2.752-9.391 2.752m-.05-16.08q1.869 0 3.393-.59a7.7 7.7 0 0 0 2.606-1.77V15.486q-1.082-1.083-2.655-1.672-1.525-.64-3.295-.639-2.115 0-3.787.983a7 7 0 0 0-2.656 2.607q-.983 1.622-.983 3.687 0 2.115.935 3.787a7.36 7.36 0 0 0 2.655 2.656q1.722.981 3.787.982"></path>
  <path d="M36.24 33.875q-2.753 0-4.868-.984-2.115-1.033-3.295-2.802t-1.18-4.082q0-3.687 2.754-5.704 2.803-2.066 7.67-2.066 3.345 0 6.294 1.033v-1.868q0-2.213-1.377-3.344-1.376-1.13-4.032-1.13-1.622 0-3.49.54-1.87.492-4.328 1.573l-2.458-4.967q3.05-1.377 5.803-2.065a23.4 23.4 0 0 1 5.606-.689q5.164 0 8.015 2.508 2.902 2.459 2.901 6.983v16.62h-6.638v-1.82a10.7 10.7 0 0 1-3.393 1.722q-1.82.541-3.984.542m-2.95-8.016q0 1.476 1.278 2.36 1.28.837 3.393.837 1.672 0 3.098-.394a8.5 8.5 0 0 0 2.557-1.279v-3.737a13.4 13.4 0 0 0-2.557-.737 15.7 15.7 0 0 0-2.852-.246q-2.31 0-3.639.885-1.279.836-1.279 2.311"></path>
  <path d="M50.09 33.432v-4.77l12.883-15.194H50.188V7.812h21.39v4.77L58.696 27.777h13.228v5.655z"></path>
  <path d="M84.563 33.925q-3.834 0-6.982-1.77-3.097-1.77-4.918-4.77-1.82-3-1.82-6.737t1.722-6.737a13.3 13.3 0 0 1 4.77-4.77q3-1.77 6.688-1.77t6.54 1.82q2.851 1.82 4.474 4.917 1.672 3.099 1.672 7.032v1.77H77.728a7.9 7.9 0 0 0 1.426 2.754 7.2 7.2 0 0 0 2.508 1.918 7.8 7.8 0 0 0 3.245.688q1.721 0 3.147-.54 1.475-.541 2.508-1.525l4.426 4.032q-2.361 1.918-4.869 2.803-2.457.885-5.556.885M77.63 18.09h12.44q-.343-1.525-1.278-2.656a6.1 6.1 0 0 0-2.164-1.82q-1.23-.687-2.754-.688-1.573 0-2.852.64a6.1 6.1 0 0 0-2.164 1.819q-.835 1.13-1.228 2.705"></path>
  <path d="m97.984 33.432 5.163-24.193h2.115l-5.163 24.193zm7.573-29.652a1.6 1.6 0 0 1-1.18-.492q-.492-.492-.492-1.229 0-.59.246-1.033.294-.443.737-.688c.31-.192.668-.294 1.033-.295q.688 0 1.18.492.491.492.492 1.18a2.05 2.05 0 0 1-.295 1.082q-.246.442-.738.737a2 2 0 0 1-.983.246"></path>
  <path d="M111.837 33.925q-3.048 0-4.425-1.475-1.377-1.524-.787-4.23l3.639-17.014h-5.262l.442-1.967h5.213l1.327-6.097 2.262-.689-1.425 6.786H120l-.442 1.967h-7.18l-3.541 16.572q-.49 2.214.394 3.197.885.934 3.393.934.542 0 1.131-.098.819-.195 1.623-.443l-.442 2.115q-.787.197-1.574.294-.738.148-1.525.148"></path>
</g></g></svg>
